<?xml version="1.0" encoding="UTF-8"?>
<mxfile host="app.diagrams.net" modified="2024-03-24T16:00:00.000Z" agent="AI Assistant" version="21.1.1">
  <diagram id="operator-management-flowchart" name="Operator Management Process">
    <mxGraphModel dx="1200" dy="800" grid="1" gridSize="10" guides="1" tooltips="1" connect="1" arrows="1" fold="1" page="1" pageScale="1" pageWidth="850" pageHeight="1100">
      <root>
        <mxCell id="0"/>
        <mxCell id="1" parent="0"/>
        
        <!-- Start Node -->
        <mxCell id="2" value="Start" style="ellipse;whiteSpace=wrap;html=1;fillColor=#d5e8d4;strokeColor=#82b366;" vertex="1" parent="1">
          <mxGeometry x="375" y="20" width="100" height="60" as="geometry"/>
        </mxCell>
        
        <!-- User Login -->
        <mxCell id="3" value="Admin/Staff logs in" style="rounded=1;whiteSpace=wrap;html=1;fillColor=#dae8fc;strokeColor=#6c8ebf;" vertex="1" parent="1">
          <mxGeometry x="365" y="120" width="120" height="60" as="geometry"/>
        </mxCell>
        
        <!-- Navigate to Operators -->
        <mxCell id="4" value="Navigate to Operators section" style="rounded=1;whiteSpace=wrap;html=1;fillColor=#dae8fc;strokeColor=#6c8ebf;" vertex="1" parent="1">
          <mxGeometry x="365" y="220" width="120" height="60" as="geometry"/>
        </mxCell>
        
        <!-- Action Selection -->
        <mxCell id="5" value="Select action" style="rhombus;whiteSpace=wrap;html=1;fillColor=#fff2cc;strokeColor=#d6b656;" vertex="1" parent="1">
          <mxGeometry x="375" y="320" width="100" height="100" as="geometry"/>
        </mxCell>
        
        <!-- View Operators -->
        <mxCell id="6" value="View Operators List" style="rounded=1;whiteSpace=wrap;html=1;fillColor=#dae8fc;strokeColor=#6c8ebf;" vertex="1" parent="1">
          <mxGeometry x="140" y="340" width="120" height="60" as="geometry"/>
        </mxCell>
        
        <!-- Add Operator -->
        <mxCell id="7" value="Add New Operator" style="rounded=1;whiteSpace=wrap;html=1;fillColor=#dae8fc;strokeColor=#6c8ebf;" vertex="1" parent="1">
          <mxGeometry x="365" y="460" width="120" height="60" as="geometry"/>
        </mxCell>
        
        <!-- Import Operators -->
        <mxCell id="8" value="Import Operators" style="rounded=1;whiteSpace=wrap;html=1;fillColor=#dae8fc;strokeColor=#6c8ebf;" vertex="1" parent="1">
          <mxGeometry x="570" y="340" width="120" height="60" as="geometry"/>
        </mxCell>
        
        <!-- Search Operator -->
        <mxCell id="9" value="Search for operator" style="rounded=1;whiteSpace=wrap;html=1;fillColor=#dae8fc;strokeColor=#6c8ebf;" vertex="1" parent="1">
          <mxGeometry x="140" y="440" width="120" height="60" as="geometry"/>
        </mxCell>
        
        <!-- Fill Operator Form -->
        <mxCell id="10" value="Fill operator information form" style="rounded=1;whiteSpace=wrap;html=1;fillColor=#dae8fc;strokeColor=#6c8ebf;" vertex="1" parent="1">
          <mxGeometry x="365" y="560" width="120" height="60" as="geometry"/>
        </mxCell>
        
        <!-- Upload Excel -->
        <mxCell id="11" value="Upload Excel file with operator data" style="rounded=1;whiteSpace=wrap;html=1;fillColor=#dae8fc;strokeColor=#6c8ebf;" vertex="1" parent="1">
          <mxGeometry x="570" y="440" width="120" height="60" as="geometry"/>
        </mxCell>
        
        <!-- Select Operator -->
        <mxCell id="12" value="Select operator to view or edit" style="rounded=1;whiteSpace=wrap;html=1;fillColor=#dae8fc;strokeColor=#6c8ebf;" vertex="1" parent="1">
          <mxGeometry x="140" y="540" width="120" height="60" as="geometry"/>
        </mxCell>
        
        <!-- Submit Form -->
        <mxCell id="13" value="Submit form" style="rounded=1;whiteSpace=wrap;html=1;fillColor=#dae8fc;strokeColor=#6c8ebf;" vertex="1" parent="1">
          <mxGeometry x="365" y="660" width="120" height="60" as="geometry"/>
        </mxCell>
        
        <!-- Validate and Save -->
        <mxCell id="14" value="System validates and saves operator data" style="rounded=1;whiteSpace=wrap;html=1;fillColor=#dae8fc;strokeColor=#6c8ebf;" vertex="1" parent="1">
          <mxGeometry x="345" y="760" width="160" height="60" as="geometry"/>
        </mxCell>
        
        <!-- Preview Import -->
        <mxCell id="15" value="Preview import data" style="rounded=1;whiteSpace=wrap;html=1;fillColor=#dae8fc;strokeColor=#6c8ebf;" vertex="1" parent="1">
          <mxGeometry x="570" y="540" width="120" height="60" as="geometry"/>
        </mxCell>
        
        <!-- Operator Detail -->
        <mxCell id="16" value="View operator details" style="rounded=1;whiteSpace=wrap;html=1;fillColor=#dae8fc;strokeColor=#6c8ebf;" vertex="1" parent="1">
          <mxGeometry x="140" y="640" width="120" height="60" as="geometry"/>
        </mxCell>
        
        <!-- Edit or Delete -->
        <mxCell id="17" value="Edit or Delete?" style="rhombus;whiteSpace=wrap;html=1;fillColor=#fff2cc;strokeColor=#d6b656;" vertex="1" parent="1">
          <mxGeometry x="150" y="740" width="100" height="100" as="geometry"/>
        </mxCell>
        
        <!-- Confirm Import -->
        <mxCell id="18" value="Confirm import" style="rounded=1;whiteSpace=wrap;html=1;fillColor=#dae8fc;strokeColor=#6c8ebf;" vertex="1" parent="1">
          <mxGeometry x="570" y="640" width="120" height="60" as="geometry"/>
        </mxCell>
        
        <!-- Edit Operator -->
        <mxCell id="19" value="Edit operator information" style="rounded=1;whiteSpace=wrap;html=1;fillColor=#dae8fc;strokeColor=#6c8ebf;" vertex="1" parent="1">
          <mxGeometry x="70" y="880" width="120" height="60" as="geometry"/>
        </mxCell>
        
        <!-- Delete Operator -->
        <mxCell id="20" value="Delete operator" style="rounded=1;whiteSpace=wrap;html=1;fillColor=#dae8fc;strokeColor=#6c8ebf;" vertex="1" parent="1">
          <mxGeometry x="210" y="880" width="120" height="60" as="geometry"/>
        </mxCell>
        
        <!-- System Processes Import -->
        <mxCell id="21" value="System processes and saves imported operators" style="rounded=1;whiteSpace=wrap;html=1;fillColor=#dae8fc;strokeColor=#6c8ebf;" vertex="1" parent="1">
          <mxGeometry x="550" y="740" width="160" height="60" as="geometry"/>
        </mxCell>
        
        <!-- End -->
        <mxCell id="22" value="End" style="ellipse;whiteSpace=wrap;html=1;fillColor=#f8cecc;strokeColor=#b85450;" vertex="1" parent="1">
          <mxGeometry x="375" y="980" width="100" height="60" as="geometry"/>
        </mxCell>
        
        <!-- Connections -->
        <mxCell id="23" value="" style="endArrow=classic;html=1;exitX=0.5;exitY=1;exitDx=0;exitDy=0;entryX=0.5;entryY=0;entryDx=0;entryDy=0;" edge="1" parent="1" source="2" target="3">
          <mxGeometry width="50" height="50" relative="1" as="geometry">
            <mxPoint x="400" y="430" as="sourcePoint"/>
            <mxPoint x="450" y="380" as="targetPoint"/>
          </mxGeometry>
        </mxCell>
        
        <mxCell id="24" value="" style="endArrow=classic;html=1;exitX=0.5;exitY=1;exitDx=0;exitDy=0;entryX=0.5;entryY=0;entryDx=0;entryDy=0;" edge="1" parent="1" source="3" target="4">
          <mxGeometry width="50" height="50" relative="1" as="geometry">
            <mxPoint x="400" y="430" as="sourcePoint"/>
            <mxPoint x="450" y="380" as="targetPoint"/>
          </mxGeometry>
        </mxCell>
        
        <mxCell id="25" value="" style="endArrow=classic;html=1;exitX=0.5;exitY=1;exitDx=0;exitDy=0;entryX=0.5;entryY=0;entryDx=0;entryDy=0;" edge="1" parent="1" source="4" target="5">
          <mxGeometry width="50" height="50" relative="1" as="geometry">
            <mxPoint x="400" y="430" as="sourcePoint"/>
            <mxPoint x="450" y="380" as="targetPoint"/>
          </mxGeometry>
        </mxCell>
        
        <mxCell id="26" value="View" style="endArrow=classic;html=1;exitX=0;exitY=0.5;exitDx=0;exitDy=0;entryX=1;entryY=0.5;entryDx=0;entryDy=0;" edge="1" parent="1" source="5" target="6">
          <mxGeometry width="50" height="50" relative="1" as="geometry">
            <mxPoint x="400" y="430" as="sourcePoint"/>
            <mxPoint x="450" y="380" as="targetPoint"/>
          </mxGeometry>
        </mxCell>
        
        <mxCell id="27" value="Add" style="endArrow=classic;html=1;exitX=0.5;exitY=1;exitDx=0;exitDy=0;entryX=0.5;entryY=0;entryDx=0;entryDy=0;" edge="1" parent="1" source="5" target="7">
          <mxGeometry width="50" height="50" relative="1" as="geometry">
            <mxPoint x="400" y="430" as="sourcePoint"/>
            <mxPoint x="450" y="380" as="targetPoint"/>
          </mxGeometry>
        </mxCell>
        
        <mxCell id="28" value="Import" style="endArrow=classic;html=1;exitX=1;exitY=0.5;exitDx=0;exitDy=0;entryX=0;entryY=0.5;entryDx=0;entryDy=0;" edge="1" parent="1" source="5" target="8">
          <mxGeometry width="50" height="50" relative="1" as="geometry">
            <mxPoint x="400" y="430" as="sourcePoint"/>
            <mxPoint x="450" y="380" as="targetPoint"/>
          </mxGeometry>
        </mxCell>
        
        <mxCell id="29" value="" style="endArrow=classic;html=1;exitX=0.5;exitY=1;exitDx=0;exitDy=0;entryX=0.5;entryY=0;entryDx=0;entryDy=0;" edge="1" parent="1" source="6" target="9">
          <mxGeometry width="50" height="50" relative="1" as="geometry">
            <mxPoint x="400" y="430" as="sourcePoint"/>
            <mxPoint x="450" y="380" as="targetPoint"/>
          </mxGeometry>
        </mxCell>
        
        <mxCell id="30" value="" style="endArrow=classic;html=1;exitX=0.5;exitY=1;exitDx=0;exitDy=0;entryX=0.5;entryY=0;entryDx=0;entryDy=0;" edge="1" parent="1" source="7" target="10">
          <mxGeometry width="50" height="50" relative="1" as="geometry">
            <mxPoint x="400" y="430" as="sourcePoint"/>
            <mxPoint x="450" y="380" as="targetPoint"/>
          </mxGeometry>
        </mxCell>
        
        <mxCell id="31" value="" style="endArrow=classic;html=1;exitX=0.5;exitY=1;exitDx=0;exitDy=0;entryX=0.5;entryY=0;entryDx=0;entryDy=0;" edge="1" parent="1" source="8" target="11">
          <mxGeometry width="50" height="50" relative="1" as="geometry">
            <mxPoint x="400" y="430" as="sourcePoint"/>
            <mxPoint x="450" y="380" as="targetPoint"/>
          </mxGeometry>
        </mxCell>
        
        <mxCell id="32" value="" style="endArrow=classic;html=1;exitX=0.5;exitY=1;exitDx=0;exitDy=0;entryX=0.5;entryY=0;entryDx=0;entryDy=0;" edge="1" parent="1" source="9" target="12">
          <mxGeometry width="50" height="50" relative="1" as="geometry">
            <mxPoint x="400" y="630" as="sourcePoint"/>
            <mxPoint x="450" y="580" as="targetPoint"/>
          </mxGeometry>
        </mxCell>
        
        <mxCell id="33" value="" style="endArrow=classic;html=1;exitX=0.5;exitY=1;exitDx=0;exitDy=0;entryX=0.5;entryY=0;entryDx=0;entryDy=0;" edge="1" parent="1" source="10" target="13">
          <mxGeometry width="50" height="50" relative="1" as="geometry">
            <mxPoint x="400" y="630" as="sourcePoint"/>
            <mxPoint x="450" y="580" as="targetPoint"/>
          </mxGeometry>
        </mxCell>
        
        <mxCell id="34" value="" style="endArrow=classic;html=1;exitX=0.5;exitY=1;exitDx=0;exitDy=0;entryX=0.5;entryY=0;entryDx=0;entryDy=0;" edge="1" parent="1" source="11" target="15">
          <mxGeometry width="50" height="50" relative="1" as="geometry">
            <mxPoint x="400" y="630" as="sourcePoint"/>
            <mxPoint x="450" y="580" as="targetPoint"/>
          </mxGeometry>
        </mxCell>
        
        <mxCell id="35" value="" style="endArrow=classic;html=1;exitX=0.5;exitY=1;exitDx=0;exitDy=0;entryX=0.5;entryY=0;entryDx=0;entryDy=0;" edge="1" parent="1" source="12" target="16">
          <mxGeometry width="50" height="50" relative="1" as="geometry">
            <mxPoint x="400" y="630" as="sourcePoint"/>
            <mxPoint x="450" y="580" as="targetPoint"/>
          </mxGeometry>
        </mxCell>
        
        <mxCell id="36" value="" style="endArrow=classic;html=1;exitX=0.5;exitY=1;exitDx=0;exitDy=0;entryX=0.5;entryY=0;entryDx=0;entryDy=0;" edge="1" parent="1" source="13" target="14">
          <mxGeometry width="50" height="50" relative="1" as="geometry">
            <mxPoint x="400" y="630" as="sourcePoint"/>
            <mxPoint x="450" y="580" as="targetPoint"/>
          </mxGeometry>
        </mxCell>
        
        <mxCell id="37" value="" style="endArrow=classic;html=1;exitX=0.5;exitY=1;exitDx=0;exitDy=0;entryX=0.5;entryY=0;entryDx=0;entryDy=0;" edge="1" parent="1" source="15" target="18">
          <mxGeometry width="50" height="50" relative="1" as="geometry">
            <mxPoint x="400" y="630" as="sourcePoint"/>
            <mxPoint x="450" y="580" as="targetPoint"/>
          </mxGeometry>
        </mxCell>
        
        <mxCell id="38" value="" style="endArrow=classic;html=1;exitX=0.5;exitY=1;exitDx=0;exitDy=0;entryX=0.5;entryY=0;entryDx=0;entryDy=0;" edge="1" parent="1" source="16" target="17">
          <mxGeometry width="50" height="50" relative="1" as="geometry">
            <mxPoint x="400" y="630" as="sourcePoint"/>
            <mxPoint x="450" y="580" as="targetPoint"/>
          </mxGeometry>
        </mxCell>
        
        <mxCell id="39" value="" style="endArrow=classic;html=1;exitX=0.5;exitY=1;exitDx=0;exitDy=0;entryX=0.5;entryY=0;entryDx=0;entryDy=0;" edge="1" parent="1" source="18" target="21">
          <mxGeometry width="50" height="50" relative="1" as="geometry">
            <mxPoint x="400" y="730" as="sourcePoint"/>
            <mxPoint x="450" y="680" as="targetPoint"/>
          </mxGeometry>
        </mxCell>
        
        <mxCell id="40" value="Edit" style="endArrow=classic;html=1;exitX=0.25;exitY=1;exitDx=0;exitDy=0;entryX=0.5;entryY=0;entryDx=0;entryDy=0;" edge="1" parent="1" source="17" target="19">
          <mxGeometry width="50" height="50" relative="1" as="geometry">
            <mxPoint x="400" y="730" as="sourcePoint"/>
            <mxPoint x="450" y="680" as="targetPoint"/>
            <Array as="points">
              <mxPoint x="175" y="850"/>
              <mxPoint x="130" y="850"/>
            </Array>
          </mxGeometry>
        </mxCell>
        
        <mxCell id="41" value="Delete" style="endArrow=classic;html=1;exitX=0.75;exitY=1;exitDx=0;exitDy=0;entryX=0.5;entryY=0;entryDx=0;entryDy=0;" edge="1" parent="1" source="17" target="20">
          <mxGeometry width="50" height="50" relative="1" as="geometry">
            <mxPoint x="400" y="730" as="sourcePoint"/>
            <mxPoint x="450" y="680" as="targetPoint"/>
            <Array as="points">
              <mxPoint x="225" y="850"/>
              <mxPoint x="270" y="850"/>
            </Array>
          </mxGeometry>
        </mxCell>
        
        <mxCell id="42" value="" style="endArrow=classic;html=1;exitX=0.5;exitY=1;exitDx=0;exitDy=0;entryX=0;entryY=0.5;entryDx=0;entryDy=0;" edge="1" parent="1" source="19" target="22">
          <mxGeometry width="50" height="50" relative="1" as="geometry">
            <mxPoint x="400" y="830" as="sourcePoint"/>
            <mxPoint x="450" y="780" as="targetPoint"/>
            <Array as="points">
              <mxPoint x="130" y="960"/>
              <mxPoint x="130" y="1010"/>
            </Array>
          </mxGeometry>
        </mxCell>
        
        <mxCell id="43" value="" style="endArrow=classic;html=1;exitX=0.5;exitY=1;exitDx=0;exitDy=0;entryX=0;entryY=0.5;entryDx=0;entryDy=0;" edge="1" parent="1" source="20" target="22">
          <mxGeometry width="50" height="50" relative="1" as="geometry">
            <mxPoint x="400" y="830" as="sourcePoint"/>
            <mxPoint x="450" y="780" as="targetPoint"/>
            <Array as="points">
              <mxPoint x="270" y="960"/>
              <mxPoint x="270" y="1010"/>
            </Array>
          </mxGeometry>
        </mxCell>
        
        <mxCell id="44" value="" style="endArrow=classic;html=1;exitX=0.5;exitY=1;exitDx=0;exitDy=0;entryX=0.5;entryY=0;entryDx=0;entryDy=0;" edge="1" parent="1" source="14" target="22">
          <mxGeometry width="50" height="50" relative="1" as="geometry">
            <mxPoint x="400" y="830" as="sourcePoint"/>
            <mxPoint x="450" y="780" as="targetPoint"/>
            <Array as="points">
              <mxPoint x="425" y="940"/>
            </Array>
          </mxGeometry>
        </mxCell>
        
        <mxCell id="45" value="" style="endArrow=classic;html=1;exitX=0.5;exitY=1;exitDx=0;exitDy=0;entryX=1;entryY=0.5;entryDx=0;entryDy=0;" edge="1" parent="1" source="21" target="22">
          <mxGeometry width="50" height="50" relative="1" as="geometry">
            <mxPoint x="400" y="830" as="sourcePoint"/>
            <mxPoint x="450" y="780" as="targetPoint"/>
            <Array as="points">
              <mxPoint x="630" y="940"/>
              <mxPoint x="630" y="1010"/>
            </Array>
          </mxGeometry>
        </mxCell>
      </root>
    </mxGraphModel>
  </diagram>
</mxfile> 